<svg id="Layer_1" xmlns="http://www.w3.org/2000/svg" viewBox="0 0 1000 300"><path id="b" fill="none" stroke="#B7B7B7" stroke-width="12" stroke-miterlimit="10" d="M58.8 189.1c22.5-23.9 45.2-48 72.1-66.9s58.6-32.4 91.4-32.5c5.6 0 11.4.4 16.5 2.9 17.9 8.7 16.2 35 27.2 51.6 12.4 18.6 39.5 21.6 60.4 13.8 20.9-7.8 37.5-23.8 54.9-37.7 17.4-13.9 37.9-26.6 60.2-25.7 6.9.3 14.1 2.1 18.9 7 7.4 7.5 7 19.5 8.7 29.9 6 37 49.2 63 84.7 50.8 24.3-8.3 41.3-30.2 54.5-52.2s24.4-46 43.1-63.6c18.8-17.6 48.1-27.2 70.5-14.7 21.6 12.1 28.8 38.9 35.7 62.7 10.7 37.2 25.3 73.3 43.3 107.6 3.7 7 7.6 14 13.2 19.5 17.3 16.8 47 14.4 66.6.3 19.6-14.1 30.9-36.8 39.4-59.4 11.3-30.1 22.1-65.3 51.7-77.9"/><path id="a" fill="none" stroke="#000" stroke-width="12" stroke-miterlimit="10" d="M58.8 189.1c22.5-23.9 45.2-48 72.1-66.9s58.6-32.4 91.4-32.5c5.6 0 11.4.4 16.5 2.9 17.9 8.7 16.2 35 27.2 51.6 12.4 18.6 39.5 21.6 60.4 13.8 20.9-7.8 37.5-23.8 54.9-37.7 17.4-13.9 37.9-26.6 60.2-25.7 6.9.3 14.1 2.1 18.9 7 7.4 7.5 7 19.5 8.7 29.9 6 37 49.2 63 84.7 50.8 24.3-8.3 41.3-30.2 54.5-52.2s24.4-46 43.1-63.6c18.8-17.6 48.1-27.2 70.5-14.7 21.6 12.1 28.8 38.9 35.7 62.7 10.7 37.2 25.3 73.3 43.3 107.6 3.7 7 7.6 14 13.2 19.5 17.3 16.8 47 14.4 66.6.3 19.6-14.1 30.9-36.8 39.4-59.4 11.3-30.1 22.1-65.3 51.7-77.9"/></svg>